<svg xmlns="http://www.w3.org/2000/svg" version="1.1" xmlns:xlink="http://www.w3.org/1999/xlink" width="512" height="512" x="0" y="0" viewBox="0 0 682.667 682.667" style="enable-background:new 0 0 512 512" xml:space="preserve" class="">
  <g>
    <defs>
      <clipPath id="a" clipPathUnits="userSpaceOnUse">
        <path d="M0 512h512V0H0Z" fill="#000000" opacity="1" data-original="#000000"/>
      </clipPath>
    </defs>
    <g clip-path="url(#a)" transform="matrix(1.33333 0 0 -1.33333 0 682.667)">
      <path d="M0 0c-13.797 30.918-44.787 52.479-80.831 52.479-36.044 0-67.033-21.561-80.83-52.479 13.797-30.918 44.786-52.479 80.83-52.479S-13.797-30.918 0 0" style="fill-opacity:1;fill-rule:nonzero;stroke:none" transform="translate(504.5 340.204)" fill="#09a76d" data-original="#09a76d" class=""/>
      <path d="M0 0c31.715 0 59.511-16.698 75.13-41.771a88.351 88.351 0 0 1 8.539 14.975C69.872 4.122 38.883 25.683 2.839 25.683S-64.194 4.122-77.992-26.796a88.613 88.613 0 0 1 5.7-10.709C-56.273-14.825-29.879 0 0 0" style="fill-opacity:1;fill-rule:nonzero;stroke:none" transform="translate(420.83 367)" fill="#02905d" data-original="#02905d" class=""/>
      <path d="M0 0c-13.797 30.918-44.787 52.479-80.831 52.479-36.044 0-67.033-21.561-80.83-52.479 13.797-30.918 44.786-52.479 80.83-52.479S-13.797-30.918 0 0z" style="stroke-width:15;stroke-linecap:round;stroke-linejoin:round;stroke-miterlimit:10;stroke-dasharray:none;stroke-opacity:1" transform="translate(504.5 340.204)" fill="none" stroke="#000000" stroke-width="15" stroke-linecap="round" stroke-linejoin="round" stroke-miterlimit="10" stroke-dasharray="none" stroke-opacity="" data-original="#000000" class=""/>
      <path d="M0 0h-148.177" style="stroke-width:15;stroke-linecap:round;stroke-linejoin:round;stroke-miterlimit:10;stroke-dasharray:none;stroke-opacity:1" transform="translate(461.743 340.204)" fill="none" stroke="#000000" stroke-width="15" stroke-linecap="round" stroke-linejoin="round" stroke-miterlimit="10" stroke-dasharray="none" stroke-opacity="" data-original="#000000" class=""/>
      <path d="M0 0c-31.619 12.106-68.777 5.44-94.264-20.047-25.487-25.487-32.153-62.646-20.048-94.265 31.619-12.105 68.777-5.439 94.265 20.048C5.439-68.777 12.106-31.618 0 0" style="fill-opacity:1;fill-rule:nonzero;stroke:none" transform="translate(438.855 484.475)" fill="#09a76d" data-original="#09a76d" class=""/>
      <path d="M0 0c21.319 21.319 50.803 29.459 78.381 24.47a88.36 88.36 0 0 1-4.427 15.906C42.335 52.482 5.177 45.816-20.31 20.329-45.797-5.158-52.463-42.317-40.357-73.936a88.439 88.439 0 0 1 15.883-4.422C-29.455-50.787-21.313-21.313 0 0" style="fill-opacity:1;fill-rule:nonzero;stroke:none" transform="translate(364.9 444.1)" fill="#02905d" data-original="#02905d" class=""/>
      <path d="M0 0a88.733 88.733 0 0 1-5.844 31.421c-31.618 12.106-68.777 5.44-94.264-20.047-25.487-25.487-32.153-62.646-20.047-94.264 31.618-12.106 68.777-5.44 94.264 20.047A88.109 88.109 0 0 1-6.788-34.335" style="stroke-width:15;stroke-linecap:round;stroke-linejoin:round;stroke-miterlimit:10;stroke-dasharray:none;stroke-opacity:1" transform="translate(444.699 453.054)" fill="none" stroke="#000000" stroke-width="15" stroke-linecap="round" stroke-linejoin="round" stroke-miterlimit="10" stroke-dasharray="none" stroke-opacity="" data-original="#000000" class=""/>
      <path d="m0 0-104.777-104.776" style="stroke-width:15;stroke-linecap:round;stroke-linejoin:round;stroke-miterlimit:10;stroke-dasharray:none;stroke-opacity:1" transform="translate(408.621 454.241)" fill="none" stroke="#000000" stroke-width="15" stroke-linecap="round" stroke-linejoin="round" stroke-miterlimit="10" stroke-dasharray="none" stroke-opacity="" data-original="#000000" class=""/>
      <path d="M0 0c58.13 58.13 73.424 140.93 42.667 202.507 4.806 19.887 1.561 38.738-10.761 51.06-12.322 12.322-31.174 15.567-51.06 10.761-61.577 30.757-144.377 15.464-202.507-42.667-58.131-58.13-73.424-140.93-42.667-202.507-4.806-19.886-1.561-38.738 10.761-51.06 12.321-12.322 31.173-15.567 51.06-10.761C-140.93-73.424-58.13-58.13 0 0" style="fill-opacity:1;fill-rule:nonzero;stroke:none" transform="translate(287.357 210.472)" fill="#fac600" data-original="#fac600" class=""/>
      <path d="M0 0c-12.322 12.322-15.567 31.173-10.761 51.061-30.758 61.576-15.464 144.376 42.667 202.506 43.106 43.106 99.775 62.649 151.299 57.334-60.36 24.665-137.672 8.071-192.799-47.057-58.131-58.131-73.425-140.93-42.667-202.507-4.806-19.887-1.561-38.738 10.761-51.06C-30.737-.486-14.991-4.322 2.075-1.917A41.117 41.117 0 0 0 0 0" style="fill-opacity:1;fill-rule:nonzero;stroke:none" transform="translate(75.29 168.29)" fill="#e8b801" data-original="#e8b801" class=""/>
      <path d="M0 0c44.136 2.289 89.749 21.863 125.849 57.962 58.13 58.13 73.424 140.93 42.666 202.507 4.806 19.886 1.561 38.738-10.761 51.06-12.321 12.322-31.173 15.567-51.06 10.761-61.577 30.757-144.377 15.463-202.507-42.667-58.13-58.13-73.424-140.93-42.666-202.507-4.807-19.887-1.561-38.738 10.761-51.06 12.321-12.322 31.173-15.567 51.06-10.761C-63.568 8.757-49.516 4.307-34.948 1.9" style="stroke-width:15;stroke-linecap:round;stroke-linejoin:round;stroke-miterlimit:10;stroke-dasharray:none;stroke-opacity:1" transform="translate(161.508 152.51)" fill="none" stroke="#000000" stroke-width="15" stroke-linecap="round" stroke-linejoin="round" stroke-miterlimit="10" stroke-dasharray="none" stroke-opacity="" data-original="#000000" class=""/>
      <path d="M0 0c0-79.113-64.134-143.247-143.247-143.247-79.112 0-143.246 64.134-143.246 143.247 0 79.113 64.134 143.247 143.246 143.247C-64.134 143.247 0 79.113 0 0" style="fill-opacity:1;fill-rule:nonzero;stroke:none" transform="translate(448.856 255.477)" fill="#fddf30" data-original="#fddf30" class=""/>
      <path d="M0 0c-7.74 71.811-68.54 127.723-142.407 127.723-79.113 0-143.246-64.134-143.246-143.246 0-79.113 64.133-143.247 143.246-143.247C-69.901-158.77-9.987-104.898-.483-35" style="stroke-width:15;stroke-linecap:round;stroke-linejoin:round;stroke-miterlimit:10;stroke-dasharray:none;stroke-opacity:1" transform="translate(448.016 271)" fill="none" stroke="#000000" stroke-width="15" stroke-linecap="round" stroke-linejoin="round" stroke-miterlimit="10" stroke-dasharray="none" stroke-opacity="" data-original="#000000" class=""/>
      <path d="M0 0c0 25.385-21.467 45.756-47.238 43.95-21.786-1.528-39.38-19.226-40.789-41.02-1.11-17.15 7.6-32.357 21.053-40.56 8.915-5.436 12.126-16.852 7.729-26.323l-12.811-27.592c-9.498-20.458 5.44-43.863 27.995-43.863s37.493 23.405 27.995 43.863l-12.813 27.597c-4.437 9.555-1.024 20.912 7.94 26.447C-8.374-29.743 0-15.853 0 0" style="fill-opacity:1;fill-rule:nonzero;stroke:none" transform="translate(349.67 157.079)" fill="#fff5c6" data-original="#fff5c6"/>
      <path d="m0 0 12.811 27.592c4.397 9.471 1.186 20.887-7.729 26.324-13.453 8.203-22.163 23.41-21.054 40.559 1.255 19.387 15.318 35.521 33.743 39.927a44.405 44.405 0 0 1-13.405 1.093c-21.787-1.527-39.38-19.225-40.79-41.02-1.109-17.149 7.601-32.356 21.053-40.559 8.915-5.437 12.126-16.853 7.729-26.324L-20.452 0c-9.498-20.458 5.439-43.862 27.994-43.862 3.631 0 7.061.613 10.227 1.716C1.268-36.396-7.969-17.165 0 0" style="fill-opacity:1;fill-rule:nonzero;stroke:none" transform="translate(298.066 65.533)" fill="#fef0ae" data-original="#fef0ae"/>
      <path d="M0 0c0 25.385-21.467 45.756-47.238 43.95-21.786-1.528-39.38-19.226-40.789-41.02-1.11-17.15 7.6-32.357 21.053-40.56 8.915-5.436 12.126-16.852 7.729-26.323l-12.811-27.592c-9.498-20.458 5.44-43.863 27.995-43.863s37.493 23.405 27.995 43.863l-12.813 27.597c-4.437 9.555-1.024 20.912 7.94 26.447C-8.374-29.743 0-15.853 0 0Z" style="stroke-width:15;stroke-linecap:butt;stroke-linejoin:round;stroke-miterlimit:10;stroke-dasharray:none;stroke-opacity:1" transform="translate(349.67 157.079)" fill="none" stroke="#000000" stroke-width="15" stroke-linecap="butt" stroke-linejoin="round" stroke-miterlimit="10" stroke-dasharray="none" stroke-opacity="" data-original="#000000" class=""/>
      <path d="M0 0c-63.294 0-114.787 51.493-114.787 114.787 0 63.294 51.493 114.787 114.787 114.787 63.293 0 114.787-51.493 114.787-114.787C114.787 51.493 63.293 0 0 0" style="fill-opacity:1;fill-rule:nonzero;stroke:none" transform="translate(305.609 138.28)" fill="#fff5c6" data-original="#fff5c6"/>
      <path d="M0 0c0 58.007 43.252 106.094 99.198 113.724a115.208 115.208 0 0 1-15.589 1.063C20.315 114.787-31.178 63.294-31.178 0c0-63.293 51.493-114.787 114.787-114.787 5.287 0 10.49.368 15.589 1.063C43.252-106.094 0-58.006 0 0" style="fill-opacity:1;fill-rule:nonzero;stroke:none" transform="translate(222 253.067)" fill="#fef0ae" data-original="#fef0ae"/>
      <path d="M0 0c-63.294 0-114.787 51.493-114.787 114.787 0 63.294 51.493 114.787 114.787 114.787 63.293 0 114.787-51.493 114.787-114.787C114.787 51.493 63.293 0 0 0Z" style="stroke-width:15;stroke-linecap:butt;stroke-linejoin:round;stroke-miterlimit:10;stroke-dasharray:none;stroke-opacity:1" transform="translate(305.609 138.28)" fill="none" stroke="#000000" stroke-width="15" stroke-linecap="butt" stroke-linejoin="round" stroke-miterlimit="10" stroke-dasharray="none" stroke-opacity="" data-original="#000000" class=""/>
      <path d="M0 0v-221.375" style="stroke-width:15;stroke-linecap:butt;stroke-linejoin:round;stroke-miterlimit:10;stroke-dasharray:none;stroke-opacity:1" transform="translate(305.609 363.754)" fill="none" stroke="#000000" stroke-width="15" stroke-linecap="butt" stroke-linejoin="round" stroke-miterlimit="10" stroke-dasharray="none" stroke-opacity="" data-original="#000000" class=""/>
      <path d="M0 0h221.375" style="stroke-width:15;stroke-linecap:butt;stroke-linejoin:round;stroke-miterlimit:10;stroke-dasharray:none;stroke-opacity:1" transform="translate(194.921 253.067)" fill="none" stroke="#000000" stroke-width="15" stroke-linecap="butt" stroke-linejoin="round" stroke-miterlimit="10" stroke-dasharray="none" stroke-opacity="" data-original="#000000" class=""/>
      <path d="m0 0-156.536-156.536" style="stroke-width:15;stroke-linecap:butt;stroke-linejoin:round;stroke-miterlimit:10;stroke-dasharray:none;stroke-opacity:1" transform="translate(383.877 331.335)" fill="none" stroke="#000000" stroke-width="15" stroke-linecap="butt" stroke-linejoin="round" stroke-miterlimit="10" stroke-dasharray="none" stroke-opacity="" data-original="#000000" class=""/>
      <path d="m0 0 156.536-156.536" style="stroke-width:15;stroke-linecap:butt;stroke-linejoin:round;stroke-miterlimit:10;stroke-dasharray:none;stroke-opacity:1" transform="translate(227.34 331.335)" fill="none" stroke="#000000" stroke-width="15" stroke-linecap="butt" stroke-linejoin="round" stroke-miterlimit="10" stroke-dasharray="none" stroke-opacity="" data-original="#000000" class=""/>
      <path d="M0 0c-11.051 0-20.042 8.991-20.042 20.042 0 11.051 8.991 20.042 20.042 20.042 11.051 0 20.042-8.991 20.042-20.042C20.042 8.991 11.051 0 0 0" style="fill-opacity:1;fill-rule:nonzero;stroke:none" transform="translate(305.609 233.025)" fill="#ffffff" data-original="#ffffff"/>
      <path d="M0 0c-11.051 0-20.042 8.991-20.042 20.042 0 11.051 8.991 20.042 20.042 20.042 11.051 0 20.042-8.991 20.042-20.042C20.042 8.991 11.051 0 0 0Z" style="stroke-width:15;stroke-linecap:butt;stroke-linejoin:round;stroke-miterlimit:10;stroke-dasharray:none;stroke-opacity:1" transform="translate(305.609 233.025)" fill="none" stroke="#000000" stroke-width="15" stroke-linecap="butt" stroke-linejoin="round" stroke-miterlimit="10" stroke-dasharray="none" stroke-opacity="" data-original="#000000" class=""/>
    </g>
  </g>
</svg>
